# xmcd
#
# Track frame offsets:
#	150
#	14389
#	29699
#	43994
#	58226
#	73358
#	86734
#	100888
#	116336
#	130539
#
# Disc length: 1935 seconds
#
# Revision: 0
# Processed by: cddbd v1.5.2PL0 Copyright (c) Steve Scherf et al.
# Submitted via: EasyCDDAExtractor 16.0.6.1
#
DISCID=8f078d0a
DTITLE=Συλλογικός δίσκος - Ιστορία ρεμπέτικου και λαϊκού 09-5
DYEAR=2007
DGENRE=Ποικίλη
TTITLE0=Καζαντζίδης Στέλιος - Μαντουμπάλα [Σ. Καζαντζίδης]
TTITLE1=Καζαντζίδης Στέλιος-Μαρινέλλα - Φεύγω με πίκρα στα ξένα [Σ. Καζαντζίδη
TTITLE1=ς]
TTITLE2=Γκρέϋ Καίτη-Τρίο Μπελκάντο - Πάρε το δάκρυ μου [Μ. Χιώτης]
TTITLE3=Γαβαλάς Πάνος-Γκίκα Βούλα - Οι γλάροι [Ν.Μεϊμάρης-Χ.Βασιλειάδης/Σ.Περι
TTITLE3=στέρης]
TTITLE4=Λίντα Μαίρη - Μονότερμα [Μ. Χιώτης]
TTITLE5=Μπιθικώτσης Γρηγόρης-Στάμου Ρένα - Από γυναίκες μάτσο [Γ. Μπιθικώτσης-
TTITLE5=Μπ. Μπακάλης]
TTITLE6=Μπιθικώτσης Γρηγόρης - Βάλτε τώρα που γυρίζει [Β. Τσιτσάνης]
TTITLE7=Λύδια Γιώτα - Μού 'βαλες μεγάλο πόνο [Γ. Μητσάκης]
TTITLE8=Λύδια Γιώτα - Βάλε το κόκκινο φουστάνι [Θ. Δερβενιώτης-Κ. Κοφινιώτης]
TTITLE9=Λύδια Γιώτα - Κάτσε μαννούλα να σου πω [Κ. Κοντογιώργος]
EXTD=
EXTT0=
EXTT1=
EXTT2=
EXTT3=
EXTT4=
EXTT5=
EXTT6=
EXTT7=
EXTT8=
EXTT9=
PLAYORDER=
